<svg width="412" height="412" viewBox="0 0 412 412" fill="none" xmlns="http://www.w3.org/2000/svg">
<path d="M206 411.986L0.0136719 206L206 0.0136719L411.986 206L206 411.986Z" fill="white"/>
<path d="M108.177 205.796H299.469Z" fill="black"/>
<path d="M108.177 205.796H299.469" stroke="black" stroke-width="4.92517"/>
<path d="M270.762 240.354L293.197 256.538L271.864 266.81L300.571 269.388L292.843 279.66H308.694L309.061 291.061L108.925 289.969C108.925 289.969 142.394 280.051 147.905 284.095C155.265 280.782 208.993 257.973 208.993 259.469M157.483 241.796L158.585 183.701L129.524 167.918C129.524 167.918 125.109 164.973 118.857 166.816C116.646 167.551 113.707 168.286 113.707 168.286C113.707 168.286 129.558 155.041 132.469 156.15C135.415 157.252 156.013 167.184 156.013 167.184C156.013 167.184 153.803 151.735 148.286 147.32C142.769 142.905 121.435 125.986 121.435 125.986V121.939L150.496 139.599C150.496 139.599 151.599 122.68 145.735 112.748C139.85 102.816 135.462 93.9865 135.462 93.9865L137.299 92.5171L151.653 114.585L156.415 99.4831L159.36 98.7484C159.36 98.7484 155.68 120.082 158.258 126.708C160.837 133.327 170.394 169.381 170.394 169.381L184.748 148.769C184.748 148.769 185.116 140.306 184.381 134.415C183.646 128.531 182.544 101.306 182.544 101.306H185.122L189.17 131.102L212.367 104.252V107.197C212.367 107.197 189.571 135.905 190.673 142.163C191.775 148.415 192.877 152.095 188.837 160.925C184.796 169.755 182.218 176.027 182.218 176.027C182.218 176.027 194.354 161.674 199.877 160.578C205.394 160.211 212.741 160.946 217.891 156.531C223.041 152.116 235.551 138.163 235.551 138.163L216.054 168.299C216.054 168.299 206.864 168.667 203.19 172.714C199.51 176.762 184.428 194.048 184.428 194.048V233.776L209.435 246.279L178.911 250.694L171.551 261.361L161.619 252.898L133.986 255.439L157.483 241.796Z" fill="black"/>
<path d="M270.762 240.354L293.197 256.538L271.864 266.81L300.571 269.388L292.843 279.66H308.694L309.061 291.061L108.925 289.969C108.925 289.969 142.394 280.051 147.905 284.095C155.265 280.782 208.993 257.973 208.993 259.469M157.483 241.796L158.585 183.701L129.524 167.918C129.524 167.918 125.109 164.973 118.857 166.816C116.646 167.551 113.707 168.286 113.707 168.286C113.707 168.286 129.558 155.041 132.469 156.15C135.415 157.252 156.013 167.184 156.013 167.184C156.013 167.184 153.803 151.735 148.286 147.32C142.769 142.905 121.435 125.986 121.435 125.986V121.939L150.496 139.599C150.496 139.599 151.599 122.68 145.735 112.748C139.85 102.816 135.462 93.9865 135.462 93.9865L137.299 92.5171L151.653 114.585L156.415 99.4831L159.36 98.7484C159.36 98.7484 155.68 120.082 158.258 126.708C160.837 133.327 170.394 169.381 170.394 169.381L184.748 148.769C184.748 148.769 185.116 140.306 184.381 134.415C183.646 128.531 182.544 101.306 182.544 101.306H185.122L189.17 131.102L212.367 104.252V107.197C212.367 107.197 189.571 135.905 190.673 142.163C191.775 148.415 192.877 152.095 188.837 160.925C184.796 169.755 182.218 176.027 182.218 176.027C182.218 176.027 194.354 161.674 199.877 160.578C205.394 160.211 212.741 160.946 217.891 156.531C223.041 152.116 235.551 138.163 235.551 138.163L216.054 168.299C216.054 168.299 206.864 168.667 203.19 172.714C199.51 176.762 184.428 194.048 184.428 194.048V233.776L209.435 246.279L178.911 250.694L171.551 261.361L161.619 252.898L133.986 255.439L157.483 241.796Z" stroke="black" stroke-width="3.94014"/>
<path d="M197.633 258.789C204.633 255.871 216 251.061 222.639 241.497C229.51 231.605 253.905 190 287.401 193.333C285.565 197.748 279.673 207.313 279.673 207.313L303.551 199.952C303.551 199.952 303.918 231.585 258.673 251.789C237.707 259.15 233.299 259.517 231.462 262.061C229.626 264.639 221.19 277.51 221.19 277.51L183.68 260.98C183.68 260.98 193.245 260.629 197.633 258.793V258.789Z" fill="white" stroke="black" stroke-width="4.92517"/>
</svg>
