<svg width="412" height="412" viewBox="0 0 412 412" fill="none" xmlns="http://www.w3.org/2000/svg">
<path d="M206 411.986L0.0136719 206L206 0.0136719L411.986 206L206 411.986Z" fill="white"/>
<path d="M201.986 203.755C207.585 203.755 205.694 201.49 210.476 201.49C214.374 201.49 213.054 203.694 218.34 203.694C223.245 203.694 224.442 199.986 224.442 198.476C224.442 196.15 221.803 194.653 220.605 191.497C219.408 188.354 217.082 176.721 209.98 176.721C207.367 176.721 205.83 177.789 203.878 180.116C200.674 183.891 200.415 190.231 198.435 192.694C196.483 195.082 195.728 197.646 195.728 198.986C195.728 200.435 196.422 203.748 202.02 203.748M147.225 243.551L141.85 246.095C136.469 248.687 129.755 254.102 128.361 265.211C128.129 267.034 124.014 271.871 119.796 271.871C117.204 271.871 114.136 270.157 113.714 267.605C112.98 263.225 109.667 247.503 109.524 246.837C109.116 244.898 107.211 243.653 105.265 244.068C103.32 244.483 102.082 246.381 102.497 248.327C102.497 248.367 103.014 250.81 103.014 250.81C96.7687 247.83 96.5102 247.293 96.5102 245.143C96.5102 242.49 102.633 239.109 107.463 239.109C111.524 239.109 114.633 240.272 117.646 241.395C120.367 242.415 123.177 243.463 126.354 243.463C130.925 243.463 132.231 243 134.333 241.864L136.102 241C138.871 239.837 160.347 229.585 169.81 225.061C171.129 226.952 172.708 228.85 174.531 230.674M172.286 195.299C180.646 200.49 180.517 200.259 180.558 203.531C180.456 204.415 180.422 205.871 180.422 208.571C180.422 217.483 197.769 224.966 208.667 224.966C220.755 224.966 236.762 216.803 236.762 208.306V203.721C236.762 200.102 237.143 199.769 244.129 195.667V212.667C244.129 217.422 237.612 227.571 225.837 233.497L225.456 233.687C219.755 236.551 212.667 239.81 209.742 239.81C207.041 239.81 197.898 237.143 190.626 233.476C178.844 227.558 172.333 217.401 172.333 212.646L172.286 195.299ZM98.8164 167.476C98.8028 167.477 98.7892 167.497 98.7687 167.503C98.7823 167.503 98.796 167.483 98.8164 167.476ZM310.313 160.742C311.898 160.742 312.585 161.259 312.966 161.653C315.279 164.041 315.054 171.027 314.898 176.129L314.81 180.177C314.769 182.163 316.34 183.721 318.32 183.769C320.299 183.81 321.946 182.163 321.993 180.177L322.027 178.728C322.231 179.279 322.327 179.748 322.327 180.054V186.966C322.327 188.925 321.755 191.265 319.048 191.265C316.823 191.265 313.973 189.878 311.225 188.544C308.054 187 305.034 185.537 301.993 185.537L301.476 185.517C299.687 185.429 295.959 185.259 290.708 187.714L290.605 187.762L251.32 207.694V197.708C257.129 195.054 279.415 184.837 284.925 181.993C291.136 178.796 295.878 171.959 298.667 167.871L299.748 166.327C301.619 163.755 305.51 160.755 310.333 160.755L310.313 160.742ZM129.088 187.748L129.034 187.728C123.782 185.265 120.054 185.442 118.265 185.531L117.748 185.551C114.687 185.551 111.687 187.014 108.517 188.558C105.796 189.898 102.925 191.279 100.694 191.279C97.9796 191.279 97.415 188.946 97.415 186.98V180.068C97.415 179.762 97.5102 179.293 97.7143 178.742L97.7483 180.184C97.7892 182.17 99.4354 183.816 101.422 183.776C103.401 183.735 104.98 182.17 104.932 180.184L104.844 176.136C104.68 171.034 104.463 164.048 106.769 161.66C107.15 161.272 107.837 160.748 109.422 160.748C114.245 160.748 118.143 163.748 120.014 166.32L121.095 167.864C123.912 171.946 128.646 178.816 134.837 181.986C139.653 184.469 156.81 192.347 165.163 196.184V206.014L129.088 187.748ZM208.748 75.6395C228.721 75.6395 238.422 83.9729 250.721 95.1497L257.238 100.993L259.667 103.102C267.476 109.871 274.857 116.265 274.857 120.054C274.857 124.748 273.218 129.429 270.993 133.796C271.252 132.197 271.265 131.143 271.265 129.109C271.265 121.374 269.129 118.041 261.231 109.782L256.041 114.748C263.442 122.483 264.082 124.129 264.082 129.102C264.082 132.197 264.082 132.197 262.51 139.17L260.429 148.517L260.667 149.367C260.694 149.456 263.109 158.333 263.109 166.85C263.109 175.762 257.667 179.082 250.796 183.313L248.633 184.646L241.225 189.109C233.401 193.701 229.503 195.728 229.503 203.748V208.333C229.503 210.993 219.449 217.81 208.735 217.81C198.898 217.81 188.068 211.007 187.674 208.531C187.674 205.245 187.816 203.823 187.816 203.823C187.816 195.959 184.007 193.748 176.408 189.34C174.293 188.116 171.667 186.585 168.571 184.646L166.408 183.313C159.51 179.095 154.585 176.701 154.585 166.85C154.585 156.49 157.054 152.789 157.054 149.592C157.054 146.395 153.605 133.946 153.605 131.993C153.605 131.742 153.633 129.64 153.633 129.64C153.633 124.98 154.225 121.088 161.429 114.687C162.014 114.17 162.905 112.585 162.191 111.708C161.476 110.83 161.191 110.463 160.361 109.483C159.946 108.993 159.191 108.803 158.463 108.796C157.735 108.796 157.027 108.986 156.708 109.272C148.184 116.844 146.435 122.578 146.435 129.64C146.435 129.64 146.408 131.742 146.408 132.054C146.408 133.973 146.327 133.007 147.313 137.041C144.238 131.83 141.653 125.966 141.653 120.068C141.653 116.401 148.68 110.034 156.122 103.299L159.374 100.347C161.946 98.0001 164.204 95.8096 166.34 93.6871C171.265 88.8504 175.15 85.0341 179.673 82.7348C189.871 77.5647 199.129 75.6599 208.803 75.6599M166.422 218.857C153.959 224.816 135.742 233.503 133.381 234.49L130.986 235.653C129.946 236.218 129.626 236.381 126.422 236.381C124.551 236.381 122.551 235.633 120.231 234.769C116.959 233.544 112.891 232.048 107.531 232.048C100.143 232.048 89.4082 237.197 89.4082 245.265C89.4082 252.449 94.0136 254.605 101.639 258.191L104.918 259.748C105.687 263.517 106.422 267.197 106.708 268.918C107.776 275.34 114.259 279.191 119.878 279.191C127.905 279.191 134.912 271.333 135.592 266.265C136.401 259.823 139.497 255.388 145.061 252.714L150.361 250.204L180.633 235.952C182.708 237.442 184.959 238.83 187.381 240.034C193.306 243.014 204.524 247.422 209.748 247.422C214.388 247.422 221.313 243.925 228.864 240.129C232.102 238.503 234.878 236.728 237.361 234.776L274.626 252.701C280.191 255.381 283.286 259.81 284.095 266.252C284.735 271.347 291.762 279.177 299.81 279.177C305.442 279.177 311.905 275.34 312.98 268.905C313.265 267.184 314 263.503 314.769 259.735L318.054 258.177C325.68 254.592 330.286 252.429 330.286 245.252C330.286 237.184 319.558 232.034 312.163 232.034C306.803 232.034 302.735 233.558 299.463 234.755C297.15 235.619 295.15 236.367 293.272 236.367C290.068 236.367 289.748 236.197 288.708 235.64L286.313 234.476C283.789 233.415 262.816 223.415 250.49 217.517C250.66 217 250.803 216.49 250.918 215.986C259.361 211.714 293.639 194.347 293.776 194.279C297.408 192.585 299.653 192.687 301.143 192.755L302 192.782C303.401 192.782 305.782 193.939 308.082 195.061C311.401 196.68 315.17 198.517 319.034 198.517C325.225 198.517 329.497 193.796 329.497 187.034V180.122C329.497 176.367 326.905 171.136 322.082 168.211C321.816 163.748 320.878 159.565 318.123 156.721C316.129 154.68 313.503 153.626 310.313 153.626C302.762 153.626 296.918 158.034 293.918 162.157L292.735 163.85C290.456 167.15 286.225 173.293 281.619 175.66C278.306 177.367 268.551 181.905 260.225 185.742C265.633 181.796 270.259 176.497 270.259 166.898C270.259 160.898 269.231 154.925 268.442 151.252L269.735 149.333C274.912 141.857 281.98 131.646 281.98 120.129C281.98 113.061 274.565 106.64 264.306 97.7484L261.891 95.6531L255.497 89.9184C243.116 78.6667 231.483 68.0137 208.708 68.0137C198.014 68.0137 187.415 70.7348 176.333 76.3674C170.816 79.1633 166.367 83.5375 161.231 88.5987C159.116 90.6735 156.932 92.8232 154.456 95.0817L151.225 98.0205C141.456 106.864 134.395 113.259 134.395 120.116C134.395 131.605 141.483 141.844 146.639 149.32L147.558 150.68C146.823 155.939 146.061 162.884 146.061 167.755C146.061 174.456 149.15 179.177 153.184 182.857C146.728 179.857 140.544 176.952 138.027 175.66C133.422 173.293 129.191 167.15 126.912 163.85L125.728 162.157C122.728 158.007 116.816 153.626 109.333 153.626C106.143 153.626 103.51 154.667 101.524 156.721C98.7687 159.565 97.8232 163.748 97.5647 168.218C97.5783 168.217 97.5919 168.204 97.6123 168.191C97.5987 168.191 97.5851 168.204 97.5647 168.218C92.7415 171.143 90.1429 176.374 90.1429 180.129V187.041C90.1429 193.803 94.449 198.524 100.612 198.524C104.497 198.524 108.259 196.687 111.565 195.068C113.864 193.946 116.238 192.789 117.646 192.789L118.503 192.762C119.993 192.694 122.238 192.585 125.871 194.286C126 194.347 153.218 208.15 165.143 214.15M247.32 223.946C254.646 227.449 280.51 239.81 283.51 241.088L285.279 241.952C287.374 243.088 288.68 243.551 293.259 243.551C296.429 243.551 299.245 242.497 301.966 241.483C304.973 240.361 308.088 239.197 312.15 239.197C316.98 239.197 323.102 242.578 323.102 245.231C323.102 247.381 322.844 247.918 316.599 250.898C316.912 249.415 317.109 248.456 317.122 248.422C317.531 246.483 316.293 244.578 314.347 244.163C312.408 243.755 310.503 244.993 310.095 246.932C309.952 247.599 306.639 263.327 305.905 267.701C305.476 270.252 302.415 271.959 299.823 271.959C295.605 271.959 291.49 267.123 291.259 265.299C289.864 254.17 283.157 248.755 277.776 246.184L243.082 229.497C244.748 227.687 246.177 225.823 247.361 223.986M237.973 174.259C249.946 174.259 254.98 159.225 254.98 155.354C254.98 151.483 251.918 149.844 250.116 149.844H227.34C224.912 149.844 219.061 151.823 219.061 155.606C219.061 157.02 220.122 160.136 222.408 163.157C226.354 168.381 229.776 174.231 237.966 174.231M178.449 174.259C186.612 174.259 190.082 168.408 194.007 163.184C196.293 160.157 197.354 157.061 197.354 155.633C197.354 151.85 191.503 149.871 189.075 149.871H166.299C164.497 149.871 161.442 151.49 161.442 155.381C161.442 159.252 166.483 174.286 178.449 174.286M172.259 189.088H166.925C169.483 190.265 171.422 191.129 172.259 191.531V189.088ZM165.184 214.054C165.354 215.51 165.769 217.088 166.415 218.735L165.184 214.054Z" fill="black"/>
</svg>
