<svg width="412" height="412" viewBox="0 0 412 412" fill="none" xmlns="http://www.w3.org/2000/svg">
<path d="M206 411.986L0.0136719 206L206 0.0136719L411.986 206L206 411.986Z" fill="white"/>
<path d="M114.707 217.293C107.156 217.293 102.531 214.673 100.354 210.401H45.9456V235.272H181.524V210.401H132.204C128.85 214.701 122.313 217.293 114.68 217.293" fill="black"/>
<path d="M127.225 208.041C129.435 208.041 132.605 206.973 135.163 201.85C135.748 200.687 135.864 199.204 135.993 197.633C136.061 196.816 136.17 195.503 136.361 195C136.606 194.83 137.17 194.585 137.571 194.408C139.075 193.748 141.136 192.85 142.218 190.687C142.823 189.476 143 188.279 143 187.136C143 186.279 142.898 185.456 142.803 184.674C142.701 183.85 142.612 183.061 142.612 182.245C142.612 181.966 142.613 181.687 142.646 181.401C142.769 179.973 145.279 176.878 147.537 174.884L144.088 170.959C143.041 171.878 137.81 176.674 137.435 180.952C137.293 182.633 137.463 184.054 137.612 185.306C137.789 186.796 137.878 187.674 137.537 188.354C137.299 188.823 136.333 189.252 135.469 189.626C134.136 190.211 132.633 190.864 131.796 192.395C131.061 193.748 130.918 195.51 130.776 197.218C130.714 198 130.619 199.191 130.469 199.544C130.02 200.435 129.551 201.157 129.068 201.694C128.742 202.592 128.177 203.878 127.211 205.265V208.041" fill="black"/>
<path d="M120.422 204.775L123.408 209.061C125.116 207.871 126.34 206.524 127.225 205.258C128.191 203.878 128.748 202.592 129.082 201.687C129.204 201.347 129.299 201.061 129.367 200.85C129.837 199.388 129.49 198 129.184 196.782C128.864 195.503 128.68 194.68 129.034 193.905C129.442 192.993 130.136 192.449 131.014 191.762C132.014 190.98 133.259 190 134.034 188.361C135 186.333 134.435 184.095 133.891 181.939C133.51 180.422 133.116 178.85 133.327 177.653L128.184 176.741C128.082 177.299 128.041 177.85 128.041 178.401C128.041 180.109 128.449 181.741 128.83 183.224C129.041 184.061 129.347 185.265 129.347 185.878C129.347 185.986 129.346 186.075 129.32 186.143C129.089 186.633 128.612 187.02 127.796 187.667C126.646 188.571 125.218 189.694 124.286 191.748C123.803 192.823 123.64 193.864 123.64 194.816C123.64 196.068 123.918 197.177 124.136 198.041C124.238 198.449 124.388 199.048 124.395 199.292C123.857 200.939 122.918 203.034 120.442 204.735" fill="black"/>
<path d="M97.4966 194.095C97.8435 194.741 98.068 195.347 98.2176 195.918C98.7346 196.252 99.4966 196.748 99.6462 196.993C99.8775 197.605 99.6598 199.327 99.5102 200.469C99.4625 200.844 99.4149 201.204 99.3809 201.558C100.626 202.803 102.585 204.245 103.639 204.776L101.673 208.714C102.646 210.102 103.782 211.49 104.816 212.626L108.68 209.109C106.456 206.66 104.891 204.279 104.517 203.231C104.516 203.184 104.516 203.136 104.516 203.068C104.516 202.612 104.625 201.742 104.707 201.136C104.836 200.109 104.979 199.014 104.979 197.932C104.979 196.952 104.863 195.98 104.523 195.088C103.836 193.293 102.224 192.265 100.938 191.442C100.176 190.959 99.1353 190.293 99.0809 189.871C99.0673 189.762 99.0605 189.66 99.0605 189.551C99.0605 189.027 99.2238 188.49 99.5163 187.578C99.9448 186.252 100.509 184.497 100.509 181.932C100.509 181.585 100.496 181.224 100.475 180.85L95.2578 181.163C95.387 183.34 94.9721 184.619 94.5367 185.993C94.1285 187.265 93.6591 188.714 93.8836 190.531C93.8972 190.619 93.9108 190.701 93.9244 190.789C95.1353 191.429 96.5503 192.347 97.4959 194.102" fill="black"/>
<path d="M86.4761 183.279C86.5646 184.299 86.4013 185.02 86.2176 185.864C85.8979 187.299 85.5033 189.082 86.687 191.435C87.7414 193.537 89.551 194.442 90.8707 195.095C91.9387 195.626 92.5578 195.959 92.9047 196.585C93.3333 197.374 93.2857 197.918 93.204 198.823C93.1088 199.925 92.9727 201.442 93.9319 203.075C95.4965 205.741 99.5714 208.592 101.306 209.456L101.673 208.721L103.639 204.782C102.578 204.252 100.619 202.816 99.3809 201.565C98.9659 201.15 98.6326 200.755 98.4353 200.422C98.3401 200.265 98.3333 200.068 98.4081 199.286C98.4829 198.442 98.5782 197.286 98.2176 195.925C98.068 195.354 97.8435 194.741 97.4965 194.102C96.5442 192.347 95.136 191.429 93.9183 190.789C93.6666 190.66 93.4217 190.531 93.1904 190.415C92.0748 189.864 91.5986 189.592 91.3537 189.095C91.0135 188.415 91.0544 188.15 91.3129 186.986C91.5306 185.993 91.8367 184.639 91.6802 182.823C91.3809 179.374 88.7142 176.483 86.5646 174.163L84.9795 172.388L80.9387 175.694L82.7278 177.707C84.3333 179.442 86.3265 181.605 86.4761 183.272" fill="black"/>
<path d="M109.606 186.816C109.606 190.83 110.572 196.224 115.279 196.224C119.98 196.224 121.225 190.143 121.225 187.653C121.225 185.456 117.884 176.15 117.075 167.721C116.034 167.707 115.163 167.408 114.435 166.932C113.708 176.388 109.572 183.163 109.572 186.796" fill="black"/>
<path d="M183.279 110.762C173.007 112.394 126.068 120.83 121.578 121.714C114.905 122.993 113.347 116.952 110.313 115.51C110.313 115.51 114.81 141.925 115.075 143.891C116.014 150.952 111.184 154.585 111.184 159.864C111.184 161.775 112.014 165.306 114.442 166.905C115.17 167.381 116.041 167.673 117.082 167.694C117.116 167.694 117.143 167.694 117.177 167.694C121.748 167.694 122.728 163.122 122.728 159.639C122.728 154.252 120.116 151.15 120.116 149.843C120.116 148.537 121.204 147.014 125.34 146.36C129.476 145.707 181.191 136.728 189.354 135.408C197.517 134.088 203.558 127.408 202.252 120.551C200.946 113.68 193.599 109.122 183.313 110.755M186.85 130.02C179.884 130.456 119.027 136.333 119.027 136.333L117.721 127.735C117.721 127.735 177.925 117.286 185 116.102C192.075 114.905 197.082 117.735 197.082 122.197C197.082 126.66 193.816 129.599 186.878 130.034" fill="black"/>
<path d="M295.32 164.299C293.911 171.565 290.884 178.537 290.884 180.449C290.884 182.939 291.626 189.157 296.326 189.157C301.027 189.157 302.517 183.626 302.517 179.633C302.517 176.463 299.741 171.333 298.578 163.918C297.898 164.218 297.122 164.395 296.231 164.395C295.911 164.395 295.619 164.361 295.333 164.306" fill="black"/>
<path d="M219.741 133.891C227.905 135.197 285.116 144.728 289.265 145.388C291.626 145.762 293.558 147.32 293.558 147.966C293.558 148.612 291.034 151.027 291.034 155.265C291.034 158.503 291.537 163.605 295.292 164.306C295.571 164.36 295.871 164.394 296.19 164.394C297.082 164.394 297.857 164.224 298.537 163.918C301.354 162.673 302.469 159.163 302.469 155.966C302.469 148.503 298.592 149.973 299.524 142.905C299.782 140.945 303.551 115.326 303.551 115.326C300.503 116.741 299.694 122.007 293.02 120.728C288.483 119.857 236.014 110.177 225.741 108.544C215.469 106.911 208.49 112.258 207.17 119.116C205.85 125.973 211.578 132.578 219.741 133.884M225.864 113.646C232.946 114.809 296.68 125.959 296.68 125.959L295.374 134.558C295.374 134.558 229.456 128.789 222.517 128.354C215.551 127.918 212.395 125.524 212.395 121.061C212.395 116.599 217.946 112.354 225.891 113.66" fill="black"/>
<path d="M318.381 172.463C318.415 173.197 318.435 173.599 318.034 174.503C317.272 176.19 315.946 178.292 313.952 178.769L315.143 183.857C317.408 183.326 320.578 181.646 322.83 176.646C323.755 174.605 323.68 173.177 323.633 172.197C323.592 171.381 323.571 171.041 324.265 169.946C324.762 169.17 324.898 169.136 325.49 168.98C326.83 168.626 328.367 168.048 329.694 165.578C331.204 162.762 330.714 160.422 330.361 158.707C330.17 157.769 330.014 157.034 330.136 156.265C330.32 155.095 331.143 154.197 332.714 152.585C333.565 151.707 334.531 150.714 335.51 149.469L331.429 146.238C330.626 147.265 329.796 148.116 328.993 148.939C327.252 150.728 325.456 152.578 325 155.442C324.728 157.15 325.027 158.599 325.272 159.762C325.585 161.286 325.701 162 325.116 163.095C324.762 163.762 324.748 163.762 324.19 163.912C322.878 164.258 321.347 164.816 319.878 167.136C318.415 169.442 318.361 170.966 318.435 172.449" fill="black"/>
<path d="M309.469 181.306C311.973 179.102 312.748 178.306 313.891 174.633C314.633 172.245 314.463 170.667 314.326 169.401C314.218 168.395 314.143 167.667 314.483 166.367C314.66 165.701 314.721 165.673 315.449 165.279C316.565 164.68 318.429 163.68 319.252 160.442C320.007 157.469 319.15 155.599 318.524 154.231C318.034 153.17 317.741 152.524 318 151.129L312.857 150.19C312.313 153.204 313.156 155.054 313.775 156.401C314.265 157.469 314.49 157.959 314.19 159.122C313.932 160.136 313.748 160.231 312.98 160.646C311.939 161.204 310.19 162.143 309.429 164.993C308.83 167.231 308.993 168.728 309.122 169.932C309.238 170.993 309.313 171.701 308.891 173.048C308.136 175.476 308.054 175.551 306.007 177.347L304.789 178.429L308.286 182.313L309.456 181.272" fill="black"/>
<path d="M270.762 163.891C271.354 166.51 273.218 167.66 274.578 168.503C275.816 169.272 276.238 169.585 276.408 170.408C276.68 171.687 276.558 172.054 276.374 172.599C276.007 173.687 275.728 174.83 276.286 176.803C277.265 180.272 278.313 181.401 281.796 184.878L285.49 181.184C282.19 177.884 281.918 177.503 281.306 175.367C281.143 174.796 281.156 174.755 281.32 174.259C281.701 173.116 282.034 171.789 281.51 169.32C280.857 166.245 278.721 164.932 277.313 164.061C276.245 163.401 275.952 163.163 275.85 162.748C275.667 161.918 275.864 161.286 276.306 160.041C276.837 158.531 277.503 156.653 277.19 153.966L272 154.578C272.177 156.054 271.823 157.048 271.381 158.299C270.871 159.748 270.231 161.565 270.755 163.898" fill="black"/>
<path d="M267.224 162.531C267.224 161.599 267.082 160.517 266.646 159.224C265.435 155.667 264.177 154.293 262.721 152.707L261.258 151.048L257.238 154.381L258.877 156.238C260.19 157.667 260.85 158.388 261.707 160.905C262.156 162.231 262.02 162.925 261.823 163.973C261.565 165.32 261.204 167.163 262.36 169.769C263.639 172.639 265.551 173.347 266.823 173.816C267.667 174.129 267.816 174.184 268.116 174.816C268.619 175.905 268.558 176.218 268.435 176.782C268.279 177.531 268.014 178.782 268.741 180.422C269.673 182.544 272.306 187.551 276.571 188.177L277.333 183.007C276.286 182.85 274.612 180.796 273.524 178.32L273.483 178.197L273.551 177.85C273.66 177.333 273.755 176.782 273.755 176.156C273.755 175.211 273.544 174.088 272.864 172.612C271.66 170.02 269.843 169.347 268.639 168.905C267.741 168.571 267.531 168.497 267.15 167.639C266.891 167.054 266.796 166.639 266.796 166.218C266.796 165.844 266.871 165.469 266.966 164.959C267.095 164.286 267.252 163.49 267.252 162.524" fill="black"/>
<path d="M301.374 193.007C296.252 197.15 284.782 197.469 278.721 191.945L277.442 190.782L275.871 191.51C273.538 192.592 270.429 192.68 267.932 192.748C264.755 192.837 262.245 192.911 260.959 194.918C260.027 196.374 260.116 198.388 261.211 200.354C261.388 200.68 261.599 201.007 261.83 201.333H273.225C268.986 201.333 266.762 199.333 265.939 198.068C266.606 198.02 267.401 197.986 268.082 197.973C270.585 197.898 273.599 197.762 276.456 196.823C279.572 199.197 283.374 200.558 287.252 201.075C290.061 197.769 294.803 196.558 297.578 196.558V200.469C299.742 199.905 301.735 199.068 303.401 197.986C306.177 199.184 310.068 201.544 312.776 203.184C315.129 204.612 316.293 205.313 317.068 205.605C319.435 206.517 329.313 207.326 335.429 207.326V202.102C328.517 202.102 320.245 201.19 318.966 200.728C318.551 200.558 316.864 199.537 315.517 198.714C312 196.578 307.184 193.653 303.884 192.524L302.531 192.075L301.422 192.973" fill="black"/>
<path d="M273.211 201.306H253.721C244.946 201.306 244.007 206.68 244.007 208.565C244.007 209.088 244.068 209.755 244.252 210.469H252.17C249.844 210.469 249.102 209.558 249.102 208.585C249.102 207.612 249.993 206.544 253.721 206.544H285.007C285.177 204.422 285.932 202.694 287.02 201.32H273.211" fill="black"/>
<path d="M290.286 206.544H291.034L306.653 202.898L297.741 201.32H297.578V201.769C297.51 201.769 291.041 202.061 290.279 206.531" fill="black"/>
<path d="M241.238 210.49C236.204 210.49 232.816 214.442 232.816 218.136C232.816 221.66 235.946 225.912 241.497 225.912H243.123C243.497 223.905 245.095 221.048 251.048 220.721V220.687H241.524C239.565 220.687 238.123 218.769 238.068 218.129C238.068 217.449 239.02 215.714 241.265 215.714H275.204V210.49H241.265" fill="black"/>
<path d="M243.075 225.864C242.993 226.292 242.973 226.673 242.973 226.993C242.973 231.279 246.748 234.769 253.177 234.769H253.299C254.279 231.871 257.85 229.83 262.599 229.571V229.537H253.177C249.939 229.537 248.17 227.85 248.17 226.986C248.17 226.245 250.17 225.857 252.143 225.857H275.116V220.633H252.143C251.735 220.633 251.354 220.646 250.979 220.667C245.027 220.993 243.428 223.85 243.054 225.857" fill="black"/>
<path d="M253.347 234.776C253.17 235.299 253.068 235.85 253.068 236.422C253.068 239.701 256.007 243.225 262.565 243.803C267.313 244.197 287.803 244.844 291.558 244.844C294.619 244.844 307.449 244.429 314.361 242.415C316.401 241.816 318.136 241.014 319.803 240.238C323.395 238.565 327.109 236.837 335.177 236.837V231.612C325.946 231.612 321.503 233.68 317.599 235.497C316.041 236.218 314.572 236.905 312.898 237.395C307.095 239.088 295.225 239.612 291.558 239.612C288.089 239.612 267.612 238.973 262.993 238.592C259.674 238.313 258.293 237.041 258.293 236.422C258.408 236.102 260.007 234.776 263.68 234.776H284.714L279.68 229.551H263.68C263.333 229.551 262.986 229.565 262.646 229.585C257.891 229.844 254.327 231.878 253.347 234.776Z" fill="black"/>
<path d="M287.224 201.034C287.15 201.122 287.075 201.204 287.007 201.292C285.918 202.667 285.163 204.394 284.993 206.517C284.973 206.809 284.952 207.102 284.952 207.408C284.952 212.265 287.51 220.741 304.653 222.911L305.306 217.728C299.653 217.014 290.204 214.721 290.204 207.408C290.204 207.095 290.231 206.796 290.279 206.517C291.048 202.034 297.51 201.755 297.578 201.755V196.531C294.81 196.531 290.027 197.741 287.252 201.041" fill="black"/>
</svg>
