<svg width="457" height="457" viewBox="0 0 457 457" fill="none" xmlns="http://www.w3.org/2000/svg">
<path d="M0.588867 228.432L228.568 456.411L456.547 228.432L228.568 0.452393L0.588867 228.432Z" fill="white"/>
<path d="M229.432 82.4905C213.888 111.851 232.023 128.259 212.161 170.573C200.934 161.938 206.979 129.986 186.254 129.123C188.845 139.485 187.118 142.94 186.254 146.394C183.663 161.074 179.346 173.164 188.845 191.299C174.164 184.39 173.301 171.437 161.211 162.801C163.801 176.618 157.757 205.116 174.164 232.75C159.484 231.022 154.302 225.841 138.758 210.297C155.166 296.653 168.119 299.243 229.432 304.425C224.251 303.561 193.162 298.38 181.936 262.974C181.936 254.338 181.073 270.746 211.297 271.61C192.299 241.385 197.48 247.43 199.207 230.159C207.843 241.385 200.934 243.112 222.523 251.748C215.615 229.295 233.75 214.615 229.432 188.708C234.613 199.934 251.884 198.207 251.021 251.748C265.701 235.34 266.565 246.566 273.473 229.295C274.337 238.794 278.655 250.884 258.793 271.61C263.974 273.337 272.61 274.2 285.563 264.701C272.61 280.245 284.7 280.245 251.021 304.425C293.335 305.288 320.969 278.518 320.105 220.66C318.378 225.841 317.515 236.204 295.062 238.794C308.879 224.978 316.651 196.48 305.425 174.028C301.107 177.482 295.062 194.753 280.382 199.071C287.29 186.981 285.563 171.437 285.563 171.437C285.563 171.437 288.154 149.848 275.2 132.577C271.746 158.484 271.746 172.3 255.339 175.755C257.929 161.074 258.793 153.302 250.157 136.031C241.522 117.896 231.159 99.7616 229.432 82.4905ZM159.484 319.105V334.649H307.152V319.105H159.484Z" fill="black"/>
</svg>
