<svg width="412" height="412" viewBox="0 0 412 412" fill="none" xmlns="http://www.w3.org/2000/svg">
<path d="M206 411.93L0.0695801 206L206 0.0151367L411.93 206L206 411.93Z" fill="white"/>
<path d="M207.143 48.5461C178.307 48.5461 154.912 73.7366 154.912 104.803C154.912 124.988 162.464 153.334 177.186 170.69L175.385 189.112L135.886 203.421C136.517 206.506 139.248 208.824 142.513 208.824C143.089 208.824 143.65 208.742 144.183 208.606C144.934 211.522 147.572 213.671 150.712 213.671C151.044 213.671 151.37 213.644 151.691 213.595C152.464 216.479 155.086 218.606 158.22 218.606C159.139 218.606 160.015 218.421 160.815 218.089C161.027 220.255 162.861 221.952 165.086 221.952C165.521 221.952 165.946 221.887 166.343 221.762C166.887 224.944 169.662 227.371 173.002 227.371C175.603 227.371 177.861 225.902 178.987 223.753C180.124 224.618 181.539 225.135 183.073 225.135C184.069 225.135 185.015 224.912 185.864 224.525C186.745 226.397 188.383 227.839 190.374 228.459C190.298 228.704 190.238 228.965 190.238 229.237C190.238 230.614 191.354 231.723 192.725 231.723C194.096 231.723 195.211 230.614 195.211 229.237C195.211 228.932 195.151 228.644 195.048 228.372C197.948 227.355 200.032 224.602 200.032 221.354C200.032 219.868 199.591 218.486 198.84 217.327C200.059 217.164 200.995 216.136 200.995 214.874C200.995 213.802 200.314 212.893 199.362 212.55C200.396 211.359 201.033 209.83 201.033 208.105C201.033 207.784 201 207.463 200.956 207.153C203.508 206.185 205.309 203.72 205.309 200.831C205.309 199.025 204.591 197.393 203.437 196.179C203.65 196.239 203.867 196.283 204.096 196.283C205.467 196.283 206.577 195.167 206.577 193.796C206.577 192.42 205.467 191.31 204.096 191.31C203.552 191.31 203.051 191.49 202.638 191.789C202.143 190.864 201.245 190.195 200.178 190.021C201.016 188.65 201.506 187.05 201.506 185.325C201.506 184.21 201.294 183.149 200.924 182.159C203.486 181.201 205.331 178.731 205.331 175.837C205.331 174.145 204.711 172.605 203.699 171.419C205.576 170.799 206.93 169.03 206.93 166.941C206.93 165.227 206.011 163.731 204.645 162.904C205.287 162.099 205.668 161.087 205.668 159.977C205.668 159.694 205.641 159.417 205.592 159.15C206.571 159.101 207.474 158.769 208.214 158.214C208.155 158.508 208.127 158.802 208.127 159.107C208.127 160.782 208.998 162.251 210.304 163.089C210.042 163.807 209.896 164.58 209.896 165.385C209.896 168.144 211.528 170.505 213.9 171.56C213.682 172.333 213.557 173.149 213.557 173.987C213.557 176.849 214.906 179.395 217.001 181.027C215.168 181.827 213.884 183.655 213.884 185.782C213.884 187.91 215.162 189.732 216.99 190.537C216.626 191.169 216.414 191.903 216.414 192.686C216.414 194.406 217.42 195.88 218.878 196.566C218.459 197.605 218.225 198.737 218.225 199.923C218.225 201.348 218.568 202.697 219.167 203.894C218.878 204.221 218.622 204.558 218.378 204.923C217.926 204.466 217.3 204.183 216.609 204.183C215.238 204.183 214.123 205.293 214.123 206.669C214.123 208.04 215.238 209.15 216.609 209.15C216.729 209.15 216.838 209.134 216.952 209.117C216.936 209.346 216.919 209.574 216.919 209.808C216.919 211.533 217.415 213.133 218.258 214.498C217.534 215.869 217.121 217.431 217.121 219.09C217.121 221.636 218.089 223.943 219.662 225.695C219.226 226.402 218.971 227.229 218.971 228.122C218.971 230.663 221.027 232.725 223.573 232.725C225.837 232.725 227.714 231.092 228.1 228.938C229.346 228.802 230.516 228.437 231.577 227.888C232.121 229.068 233.318 229.895 234.705 229.895C236.615 229.895 238.16 228.35 238.16 226.441C238.16 224.999 237.268 223.764 236.011 223.247C236.359 222.496 236.609 221.685 236.762 220.848C237.507 221.049 238.285 221.163 239.096 221.163C239.194 221.163 239.297 221.152 239.4 221.152C240.004 222.708 241.517 223.807 243.291 223.807C244.651 223.807 245.859 223.154 246.62 222.142C247.05 223.709 248.481 224.863 250.189 224.863C251.479 224.863 252.616 224.199 253.28 223.192C253.998 223.633 254.836 223.894 255.744 223.894C258.35 223.894 260.461 221.778 260.461 219.172C260.461 218.301 260.222 217.491 259.809 216.789C260.168 216.908 260.554 216.968 260.946 216.968C262.991 216.968 264.651 215.314 264.651 213.269C264.651 213.095 264.634 212.926 264.607 212.757C265.396 214.275 266.974 215.309 268.802 215.309C271.375 215.309 273.465 213.252 273.514 210.69C274.743 209.928 275.603 208.617 275.739 207.099C275.978 207.181 276.229 207.229 276.495 207.229C277.866 207.229 278.982 206.12 278.982 204.743C278.982 204.46 278.933 204.183 278.84 203.927L275.064 202.714L235.619 190.015L235.461 173.176C241.446 166.734 246.12 158.432 249.504 149.406C255.913 132.322 259.351 114.259 259.351 104.803C259.351 80.3198 235.956 48.5461 207.121 48.5461H207.143ZM126.294 207.36C125.614 207.36 124.977 207.556 124.439 207.888C115.053 211.484 107.262 214.471 104.308 215.668C97.6866 218.312 92.7737 225.391 92.7737 232.404V255.004L129.39 292.164C129.76 292.246 130.151 292.284 130.548 292.284C132.578 292.284 134.351 291.179 135.298 289.564C136.033 289.841 136.832 289.999 137.665 289.999C141.403 289.999 144.433 286.968 144.433 283.231C144.433 282.964 144.411 282.697 144.384 282.442C145.385 283.682 146.919 284.476 148.644 284.476C151.669 284.476 154.139 282.023 154.139 278.981C154.139 278.16 153.954 277.387 153.633 276.691C154.721 276.305 155.668 275.581 156.321 274.645C157.017 275.358 157.986 275.799 159.041 275.799C161.158 275.799 162.904 274.079 162.904 271.99C162.904 270.886 162.436 269.895 161.691 269.194C163.095 268.513 164.161 267.251 164.58 265.717C165.461 266.685 166.686 267.338 168.057 267.48C167.513 268.149 167.17 269.003 167.17 269.939C167.17 272.055 168.889 273.747 171.033 273.747C173.176 273.747 174.896 272.028 174.896 269.939C174.896 268.203 173.742 266.74 172.175 266.266C173.394 265.26 174.172 263.737 174.172 262.034C174.172 261.528 174.101 261.049 173.971 260.586C174.139 260.597 174.308 260.608 174.477 260.608C175.249 260.608 175.984 260.45 176.647 260.162C176.707 261.636 177.91 262.817 179.4 262.817C180.924 262.817 182.164 261.577 182.164 260.053C182.164 258.562 180.984 257.36 179.504 257.3C179.792 256.636 179.955 255.902 179.955 255.129C179.955 254.656 179.885 254.204 179.77 253.769C181.147 253.769 182.262 252.659 182.262 251.283C182.262 249.912 181.147 248.802 179.77 248.802C179.7 248.802 179.634 248.813 179.564 248.818C179.422 246.751 178.356 244.939 176.773 243.796C176.773 243.639 176.794 243.481 176.794 243.318C176.794 239.58 173.764 236.555 170.026 236.555C168.726 236.555 167.513 236.925 166.484 237.567C166.631 237.175 166.713 236.751 166.713 236.31C166.713 234.351 165.13 232.763 163.171 232.763C162.817 232.763 162.485 232.817 162.164 232.91C162.213 232.594 162.24 232.268 162.24 231.941C162.24 228.203 159.215 225.173 155.478 225.173C154.319 225.173 153.231 225.461 152.279 225.973C151.424 224.58 150.102 223.524 148.486 223.04C148.688 222.594 148.807 222.093 148.807 221.571C148.807 219.612 147.219 218.024 145.26 218.024C144.798 218.024 144.362 218.116 143.96 218.274C143.933 214.558 140.918 211.555 137.197 211.555C136.593 211.555 136.016 211.642 135.461 211.789C134.923 210.521 133.666 209.629 132.197 209.629C131.332 209.629 130.543 209.939 129.928 210.456C129.689 208.726 128.214 207.393 126.419 207.393M291.979 208.187C290.314 208.318 288.96 209.542 288.639 211.147C288.133 210.886 287.561 210.739 286.952 210.739C284.906 210.739 283.252 212.393 283.252 214.438C283.252 214.64 283.269 214.836 283.301 215.026C282.175 214.188 280.782 213.688 279.27 213.688C275.532 213.688 272.502 216.713 272.502 220.45V220.483C271.816 220.32 271.103 220.216 270.363 220.216C265.412 220.216 261.435 224.215 261.435 229.15C261.435 229.612 261.479 230.064 261.55 230.51C261.022 230.276 260.44 230.146 259.83 230.146C258.421 230.146 257.175 230.831 256.392 231.876C255.581 231.609 254.721 231.462 253.824 231.462C249.422 231.462 245.842 234.939 245.663 239.297C245.38 239.237 245.091 239.21 244.792 239.21C242.425 239.21 240.505 241.13 240.505 243.497C240.505 244.221 240.684 244.895 240.995 245.494C240.314 245.108 239.526 244.885 238.688 244.885C236.082 244.885 233.965 247.001 233.965 249.607C233.965 250.967 234.547 252.191 235.467 253.051V253.095C234.379 253.203 233.465 253.938 233.116 254.939C232.975 255.249 232.899 255.592 232.899 255.951C232.899 256.821 233.35 257.583 234.03 258.035C234.504 258.399 235.086 258.622 235.728 258.622C236.914 258.622 237.904 257.877 238.318 256.832C238.96 257.181 239.694 257.376 240.478 257.376C240.831 257.376 241.174 257.333 241.506 257.257C241.479 257.54 241.462 257.828 241.462 258.122C241.462 259.199 241.675 260.227 242.056 261.174C240.532 261.533 239.395 262.893 239.395 264.525C239.395 265.031 239.504 265.505 239.7 265.935C240.189 267.18 241.397 268.067 242.817 268.067C243.998 268.067 245.026 267.458 245.625 266.544C245.848 266.228 246.027 265.886 246.141 265.51C247.202 266.016 248.388 266.305 249.645 266.305C250.037 266.305 250.412 266.266 250.788 266.217C250.565 266.811 250.44 267.453 250.44 268.127C250.44 269.014 250.657 269.846 251.033 270.586C250.859 270.554 250.679 270.532 250.494 270.532C248.971 270.532 247.73 271.767 247.73 273.296C247.73 274.819 248.971 276.06 250.494 276.06C251.871 276.06 253.002 275.048 253.209 273.731C253.954 276.658 256.604 278.824 259.738 278.824C261.158 278.824 262.458 278.388 263.546 277.643C263.873 280.358 266.185 282.463 268.987 282.463C270.412 282.463 271.707 281.919 272.687 281.016C272.676 281.179 272.659 281.348 272.659 281.517C272.659 285.249 275.69 288.28 279.428 288.28C280.706 288.28 281.898 287.92 282.921 287.3C282.409 287.997 282.104 288.856 282.104 289.787C282.104 292.121 283.992 294.009 286.321 294.009C287.73 294.009 288.976 293.312 289.743 292.257L326.359 258.53V233.829C326.359 226.337 318.296 216.974 308.546 213.644C306.37 212.899 291.919 208.203 291.919 208.203M208.459 211.468C206.55 211.468 205.004 213.013 205.004 214.923C205.004 216.239 205.75 217.371 206.838 217.953C205.799 218.252 205.037 219.199 205.037 220.331C205.037 221.707 206.152 222.817 207.523 222.817C208.894 222.817 210.01 221.707 210.01 220.331C210.01 219.504 209.602 218.775 208.976 218.323C210.635 218.073 211.909 216.653 211.909 214.923C211.909 213.013 210.363 211.468 208.459 211.468ZM196.109 214.672L196.093 214.819L195.918 214.727C195.984 214.71 196.049 214.689 196.109 214.672ZM203.606 226.43C202.23 226.43 201.12 227.545 201.12 228.916C201.12 230.287 202.23 231.402 203.606 231.402C204.977 231.402 206.093 230.287 206.093 228.916C206.093 227.545 204.977 226.43 203.606 226.43ZM180.701 229.074C178.742 229.074 177.153 230.663 177.153 232.621C177.153 234.58 178.742 236.163 180.701 236.163C182.659 236.163 184.248 234.58 184.248 232.621C184.248 230.663 182.659 229.074 180.701 229.074ZM220.886 235.374C219.357 235.374 218.111 236.62 218.111 238.149C218.111 239.683 219.357 240.929 220.886 240.929C221.109 240.929 221.326 240.896 221.528 240.842C221.631 242.801 223.242 244.357 225.222 244.357C225.494 244.357 225.755 244.324 226.011 244.27C227.73 244.074 229.069 242.638 229.069 240.858C229.069 240.227 228.889 239.645 228.595 239.134C228.013 237.85 226.724 236.957 225.222 236.957C224.613 236.957 224.041 237.104 223.535 237.366C223.193 236.223 222.143 235.38 220.886 235.38M182.338 241.729C180.962 241.729 179.852 242.844 179.852 244.215C179.852 245.592 180.962 246.702 182.338 246.702C182.861 246.702 183.35 246.538 183.753 246.256C183.845 248.084 185.336 249.52 187.186 249.52C189.096 249.52 190.641 247.975 190.641 246.065C190.641 244.161 189.096 242.616 187.186 242.616C186.234 242.616 185.374 243.002 184.749 243.622C184.488 242.534 183.508 241.713 182.338 241.713M230.761 259.4C228.715 259.4 227.061 261.054 227.061 263.1C227.061 263.568 227.148 264.014 227.306 264.428C225.967 264.613 224.928 265.755 224.928 267.148C224.928 267.54 225.015 267.91 225.162 268.236C225.548 269.21 226.495 269.906 227.61 269.906H227.681C229.215 269.906 230.456 268.666 230.456 267.142C230.456 267.017 230.434 266.898 230.418 266.778C230.532 266.789 230.646 266.794 230.761 266.794C232.806 266.794 234.46 265.14 234.46 263.095C234.46 261.049 232.806 259.395 230.761 259.395M201.762 264.063C199.852 264.063 198.307 265.614 198.307 267.518C198.307 269.428 199.852 270.973 201.762 270.973C203.666 270.973 205.211 269.428 205.211 267.518C205.211 265.614 203.666 264.063 201.762 264.063ZM181.631 264.569C180.108 264.569 178.867 265.804 178.867 267.333C178.867 268.856 180.108 270.091 181.631 270.091C183.155 270.091 184.39 268.856 184.39 267.333C184.39 265.804 183.155 264.569 181.631 264.569ZM185.679 272.066C183.563 272.066 181.816 273.786 181.816 275.875C181.816 277.801 183.236 279.389 185.081 279.667C185.07 279.808 185.053 279.95 185.053 280.097C183.878 279.128 182.377 278.541 180.733 278.541C178.274 278.541 176.125 279.863 174.939 281.805C173.938 280.701 172.496 280.004 170.886 280.004C168.329 280.004 166.185 281.756 165.581 284.128C164.7 283.524 163.639 283.176 162.491 283.176C159.466 283.176 156.996 285.624 156.996 288.671C156.996 289.096 157.045 289.504 157.137 289.901C155.684 288.579 153.758 287.763 151.642 287.763C148.263 287.763 145.369 289.808 144.118 292.725C143.236 292.126 142.175 291.772 141.027 291.772C138.002 291.772 135.532 294.221 135.532 297.268C135.532 297.708 135.587 298.138 135.684 298.546L202.17 366.065C203.04 365.701 203.65 364.841 203.65 363.84C203.65 362.893 203.095 362.083 202.3 361.685C203.242 361.354 203.922 360.472 203.922 359.417C203.922 358.421 203.318 357.567 202.458 357.197C203.312 356.636 203.873 355.673 203.873 354.58C203.873 353.084 202.828 351.859 201.43 351.522C204.21 349.602 206.038 346.397 206.038 342.763C206.038 340.516 205.342 338.437 204.156 336.724C206.071 335.527 207.344 333.405 207.344 330.984C207.344 328.263 205.723 325.896 203.388 324.83C204.308 324.128 204.901 323.029 204.901 321.783C204.901 320.483 204.254 319.335 203.269 318.639C203.829 317.975 204.161 317.121 204.161 316.185C204.161 314.068 202.442 312.376 200.298 312.376C199.977 312.376 199.672 312.42 199.373 312.491C199.803 311.604 200.053 310.608 200.053 309.553C200.053 308.568 199.836 307.632 199.455 306.789C201.446 306.647 203.013 304.993 203.013 302.98C203.013 301.348 201.968 299.928 200.505 299.389C201.936 298.149 202.85 296.321 202.85 294.275C202.85 291.936 201.664 289.874 199.857 288.66C200.902 287.469 201.544 285.907 201.544 284.199C201.544 282.703 201.054 281.326 200.227 280.206C201.294 279.825 202.061 278.813 202.061 277.616C202.061 276.092 200.826 274.852 199.297 274.852C198.367 274.852 197.545 275.32 197.045 276.027C195.81 274.498 193.916 273.519 191.794 273.519C190.799 273.519 189.863 273.737 189.014 274.117C188.367 272.915 187.094 272.093 185.63 272.093L185.679 272.066ZM223.274 273.171C220.733 273.171 218.671 275.233 218.671 277.774C218.671 278.557 218.873 279.297 219.215 279.939C218.552 279.395 217.703 279.063 216.778 279.063C214.656 279.063 212.915 280.777 212.915 282.871C212.915 284.694 214.188 286.218 215.897 286.604C215.396 287.55 215.108 288.622 215.108 289.765C215.108 291.941 216.158 293.905 217.779 295.14C217.159 296.294 216.805 297.61 216.805 299.009C216.805 301.179 217.654 303.149 219.036 304.612C218.584 305.63 218.329 306.751 218.329 307.931C218.329 308.388 218.378 308.834 218.448 309.27C217.893 308.889 217.235 308.639 216.522 308.59C216.99 307.953 217.273 307.17 217.273 306.321C217.273 304.199 215.554 302.512 213.41 302.512C211.288 302.512 209.547 304.226 209.547 306.321C209.547 307.338 209.939 308.258 210.587 308.943C208.982 309.4 207.801 310.88 207.801 312.632C207.801 314.749 209.52 316.441 211.664 316.441C211.783 316.441 211.898 316.419 212.017 316.408C211.31 317.616 210.897 319.025 210.897 320.527C210.897 323.383 212.36 325.891 214.575 327.355C211.647 328.6 209.591 331.506 209.591 334.89C209.591 337.344 210.674 339.542 212.387 341.043C210.614 342.262 209.449 344.302 209.449 346.615C209.449 347.561 209.645 348.459 209.993 349.275C209.498 350.097 209.21 351.054 209.21 352.083C209.21 353.269 209.596 354.368 210.238 355.265C209.683 355.706 209.319 356.381 209.319 357.148C209.319 357.975 209.738 358.709 210.374 359.145C209.711 359.574 209.286 360.314 209.286 361.163C209.286 361.315 209.303 361.468 209.33 361.615C208.786 362.055 208.416 362.725 208.416 363.492C208.416 364.493 209.025 365.347 209.89 365.717L281.544 299.558C281.686 299.155 281.767 298.726 281.767 298.274C281.767 296.152 280.048 294.466 277.959 294.466C277.3 294.466 276.68 294.634 276.141 294.923C275.478 292.643 273.372 290.978 270.88 290.978C269.803 290.978 268.807 291.294 267.959 291.827C267.97 291.685 267.98 291.549 267.98 291.408C267.98 287.67 264.95 284.64 261.212 284.64C260.336 284.64 259.504 284.814 258.737 285.118C258.639 283.084 256.968 281.462 254.928 281.462C252.806 281.462 251.12 283.182 251.12 285.325C251.12 285.488 251.131 285.652 251.152 285.809C250.189 284.243 248.459 283.192 246.484 283.192C246.169 283.192 245.864 283.225 245.565 283.274C245.521 279.574 242.513 276.587 238.802 276.587C238.421 276.587 238.057 276.626 237.692 276.685C237.513 274.738 235.869 273.214 233.884 273.214C232.23 273.214 230.826 274.259 230.282 275.722C230.113 275.712 229.945 275.701 229.77 275.701C228.998 275.701 228.252 275.815 227.545 276.011C226.887 274.275 225.211 273.035 223.242 273.035L223.274 273.171ZM207.931 288.258C206.403 288.258 205.168 289.498 205.168 291.022C205.168 291.849 205.538 292.578 206.109 293.084C205.369 293.78 204.906 294.77 204.906 295.869C204.906 297.986 206.626 299.678 208.769 299.678C210.891 299.678 212.632 297.959 212.632 295.869C212.632 294.313 211.707 292.98 210.374 292.376C210.603 291.974 210.744 291.517 210.744 291.022C210.744 289.498 209.509 288.258 207.986 288.258" fill="black"/>
</svg>
