<svg width="457" height="457" viewBox="0 0 457 457" fill="none" xmlns="http://www.w3.org/2000/svg">
<path d="M0.849121 228.148L228.853 456.152L456.895 228.11C380.857 152.159 304.969 76.0565 228.891 0.144287L0.849121 228.148Z" fill="white"/>
<path d="M226.798 51.0139C219.169 59.2702 226.774 93.2405 211.016 125.086C202.847 116.372 199.571 100.03 190.313 91.8602C195.197 104.387 181.59 103.299 186.491 146.869C179.094 145.02 178.866 141.972 162.528 122.365C165.57 141.379 163.638 153.414 167.45 174.654C167.45 174.654 163.512 173.824 144.566 159.93C150.715 180.643 139.972 224.256 164.449 255.094L164.363 255.029C166.246 282.935 185.917 305.988 212.117 312.953H164.773V333.009H296.811V312.953H245.321C269.026 306.65 287.37 287.173 292.04 262.845V262.823C298.529 252.451 327.552 218.877 305.231 164.852C305.231 164.852 298.682 176.858 286.707 180.094C286.707 180.094 302.049 154.52 289.427 133.808C289.427 133.808 285.728 148.942 273.106 149.589C273.106 149.589 279.25 117.31 262.744 96.7609C256.753 110.377 266.331 116.019 246.401 127.266C243.674 85.3159 234.967 78.2451 226.798 51.0139ZM222.437 142.508C230.047 147.191 235.521 155.245 237.182 170.358C237.913 177.005 240.398 180.814 242.212 187.564C237.861 186.636 233.347 186.139 228.719 186.139C223.065 186.139 217.583 186.864 212.355 188.233C211.196 166.217 222.72 171.051 222.437 142.508ZM194.674 158.311C194.674 158.311 197.72 177.502 205.49 190.457C200.015 192.573 194.906 195.427 190.269 198.877C187.717 178.981 193.497 174.482 194.674 158.311ZM262.204 168.112C262.204 168.112 265.057 187.328 268.94 200.215C262.787 195.298 255.71 191.487 248.02 189.075C251.261 182.443 256.247 173.708 262.204 168.112ZM164.708 189.356C164.708 189.356 170.491 195.188 185.606 202.676C180.302 207.445 175.799 213.087 172.307 219.365C169.95 211.644 166.642 199.994 164.708 189.356ZM292.709 196.437C293.216 203.539 293.225 220.817 289.989 230.202L290.01 230.526C287.151 221.808 282.486 213.913 276.453 207.275C280.344 204.164 286.962 199.204 292.709 196.437ZM228.158 203.972C253.602 203.972 274.25 224.641 274.25 250.086C274.25 275.53 253.602 296.178 228.158 296.178C202.714 296.178 182.066 275.53 182.066 250.086C182.066 224.641 202.714 203.972 228.158 203.972Z" fill="black"/>
</svg>
