<svg width="457" height="457" viewBox="0 0 457 457" fill="none" xmlns="http://www.w3.org/2000/svg">
<path d="M0.8479 228.173L228.827 456.152L456.893 228.173C380.9 152.18 304.907 76.0137 228.914 0.193359L0.8479 228.173Z" fill="white"/>
<path d="M228.741 101.316H227.014C217.392 101.641 208.19 105.34 201.021 111.765C198.275 114.417 196.356 117.806 195.494 121.523C195.235 122.473 195.235 122.732 195.235 124.546C195.235 126.359 195.235 126.705 195.494 127.741C195.667 128.95 212.333 241.213 212.506 243.112C213.171 247.928 215.716 252.284 219.583 255.229C223.45 258.174 228.326 259.468 233.145 258.829C237.089 258.248 240.738 256.401 243.541 253.566C246.345 250.732 248.151 247.063 248.689 243.112C248.948 240.781 265.528 128.777 265.788 127.655C265.96 126.618 265.96 126.273 265.96 124.632C265.96 122.646 265.96 121.955 265.528 120.574C264.123 115.572 260.844 111.304 256.375 108.656C248.97 103.647 240.183 101.08 231.245 101.316H228.655H228.741ZM230.468 274.978H229.432C225.209 275.155 221.093 276.356 217.437 278.477C213.782 280.598 210.697 283.576 208.447 287.154C204.483 293.033 202.795 300.155 203.698 307.188C204.539 314.465 208.046 321.172 213.542 326.014C218.34 330.1 224.425 332.363 230.727 332.404C235.15 332.332 239.488 331.186 243.369 329.065C247.251 326.944 250.558 323.911 253.007 320.228C256.96 314.281 258.617 307.099 257.67 300.021C257.222 296.736 256.29 293.535 254.907 290.522C252.707 285.931 249.271 282.044 244.985 279.298C240.698 276.552 235.731 275.056 230.641 274.978" fill="black"/>
</svg>
