<svg width="457" height="457" viewBox="0 0 457 457" fill="none" xmlns="http://www.w3.org/2000/svg">
<path d="M0.849121 228.148L228.853 456.152L456.895 228.11C380.857 152.159 304.969 76.0565 228.891 0.144287L0.849121 228.148Z" fill="white"/>
<path d="M281.332 176.964C280.663 176.962 279.986 176.994 279.561 177.072C278.737 177.227 119.791 219.9 119.22 220.12C114.716 221.891 111.693 226.801 110.779 233.851C110.591 235.279 110.503 237.886 110.585 239.55C110.715 242.251 111.068 244.551 111.729 247.236C114.422 258.17 121.225 266.761 128.503 268.393C129.352 268.581 131.347 268.635 132.195 268.48C132.913 268.357 290.419 226.123 292.018 225.625C295.062 224.679 297.354 222.554 299.035 219.127C299.973 217.226 300.539 215.386 301.021 212.694C301.404 210.572 301.734 209.66 302.64 208.29C303.742 206.617 305.65 205.191 307.584 204.619C307.902 204.53 315.763 202.423 325.049 199.935C334.335 197.438 342.132 195.299 342.385 195.185C346.139 193.463 347.505 187.981 345.343 183.354C344.152 180.817 341.993 178.943 339.708 178.454C338.933 178.29 337.75 178.309 336.966 178.497C336.607 178.587 328.874 180.655 319.76 183.095C310.654 185.543 302.993 187.593 302.748 187.65C302.454 187.724 301.808 187.758 300.87 187.758C299.303 187.75 298.702 187.646 297.437 187.132C295.854 186.48 294.856 185.684 293.249 183.808C290.842 181.001 288.669 179.229 286.254 178.087C285.218 177.605 284.103 177.243 283.124 177.072C282.675 176.994 282.001 176.966 281.332 176.964Z" fill="black"/>
</svg>
