<svg width="457" height="457" viewBox="0 0 457 457" fill="none" xmlns="http://www.w3.org/2000/svg">
<path d="M0.849121 228.148L228.853 456.152L456.895 228.11C380.857 152.159 304.969 76.0565 228.891 0.144287L0.849121 228.148Z" fill="white"/>
<path d="M250.848 96.5234C250.788 96.531 250.746 96.5953 250.697 96.7177C250.656 96.8401 242.864 119.05 233.383 146.092C223.901 173.133 216.122 195.295 216.09 195.336C215.992 195.434 215.304 195.186 215.313 195.055C215.321 194.966 235.575 131.944 235.779 131.39C235.803 131.324 235.198 130.915 233.965 130.181C232.13 129.087 231.915 128.971 231.915 129.101C231.915 129.215 215.043 194.98 215.01 195.012C214.994 195.037 214.534 194.93 213.996 194.775C212.706 194.407 210.515 193.961 209.095 193.782C207.504 193.586 203.882 193.578 202.446 193.782C195.738 194.72 190.304 197.494 185.563 202.374C182.234 205.801 179.583 210.246 178.18 214.766C178.008 215.305 177.845 215.77 177.813 215.802C177.78 215.835 175.203 213.951 172.07 211.592C168.937 209.234 166.344 207.315 166.327 207.339C166.311 207.356 166.626 208.003 167.018 208.786L167.731 210.211L172.653 213.514C177.41 216.704 177.551 216.821 177.51 217.033C177.47 217.237 177.629 217.434 179 218.911C179.84 219.825 180.765 220.811 181.051 221.113L181.591 221.653L183.037 221.567L184.484 221.48L187.204 223.294C188.697 224.281 189.825 225.005 189.687 224.891C189.556 224.777 188.473 223.946 187.29 223.056C186.115 222.175 185.204 221.445 185.261 221.437C185.318 221.429 187.205 221.322 189.449 221.2L193.529 220.984L199.402 223.941C202.649 225.557 205.336 226.877 205.36 226.877C205.385 226.877 206.86 225.119 208.663 222.948C210.467 220.786 211.996 218.955 212.053 218.89C212.142 218.783 211.906 218.166 210.649 215.09C209.825 213.074 209.165 211.414 209.181 211.398C209.198 211.39 211.253 211.604 213.758 211.873C216.263 212.142 218.324 212.351 218.357 212.326C218.381 212.294 218.71 211.048 219.069 209.563L219.738 206.843L221.768 206.821C222.886 206.813 224.11 206.832 224.51 206.865L225.244 206.929L218.292 214.529C214.457 218.698 211.257 222.208 211.168 222.322C210.857 222.689 213.621 219.92 220.084 213.384L226.453 206.929L228.827 206.886L231.181 206.843L230.77 206.238C230.534 205.904 230.087 205.318 229.777 204.943C229.467 204.568 229.229 204.242 229.237 204.209C229.254 204.176 230.141 203.251 231.202 202.158L233.124 200.193L233.339 200.647C233.454 200.908 233.534 201.146 233.534 201.187C233.534 201.317 233.641 201.277 236.88 199.783C238.553 199.016 239.956 198.426 239.989 198.466C240.021 198.499 240.329 199.544 240.68 200.776C241.022 202.009 241.338 203.054 241.37 203.086C241.428 203.152 251.296 195.182 251.582 194.839C251.647 194.75 252.874 192.518 254.302 189.874C255.73 187.222 256.995 184.91 257.109 184.714C257.223 184.518 257.274 184.352 257.217 184.369C257.168 184.385 255.136 186.067 252.705 188.082L248.279 191.731L245.105 191.817C243.351 191.858 241.79 191.876 241.651 191.86C241.415 191.836 243.168 190.051 271.336 161.614C287.794 145.001 301.28 131.379 301.28 131.346C301.28 131.314 300.499 130.514 299.553 129.576C297.937 127.96 297.827 127.883 297.696 128.022C297.623 128.095 283.931 143 267.277 161.139L237.01 194.127L234.613 195.811C233.299 196.733 232.179 197.532 232.13 197.581C232.073 197.638 232.137 197.848 232.325 198.272C232.553 198.811 232.574 198.905 232.476 199.028C232.386 199.142 229.237 202.615 228.633 203.259C228.486 203.414 228.479 203.405 227.769 202.719C226.39 201.357 225.086 200.307 223.495 199.222L222.718 198.682L237.722 172.905C249.554 152.579 252.7 147.115 252.618 147.041C252.569 146.984 251.794 146.501 250.913 145.962L249.294 144.969L249.013 145.466C248.866 145.743 242.785 157.756 235.498 172.149C227.983 187.017 222.222 198.315 222.156 198.315C222.075 198.315 222.085 198.218 222.199 197.883C222.289 197.655 230.249 175.455 239.902 148.553C249.564 121.65 257.449 99.6164 257.433 99.5674C257.4 99.494 251.533 96.7518 250.913 96.5234C250.888 96.5152 250.868 96.5206 250.848 96.5234ZM221.077 134.196L220.235 136.29L219.415 138.406L217.817 137.78C216.928 137.429 216.179 137.164 216.155 137.197C216.13 137.23 215.753 138.996 215.313 141.126C214.88 143.256 214.517 145.068 214.492 145.142C214.468 145.24 214.827 145.436 216.133 146.048C217.071 146.489 217.862 146.879 217.903 146.912C217.936 146.945 218.337 148.385 218.81 150.107C219.275 151.821 219.679 153.243 219.695 153.259C219.711 153.275 220.377 152.327 221.185 151.143C222.719 148.899 222.715 148.907 227.554 143.652L227.813 143.371L226.409 138.838L225.006 134.304L224.402 134.261C224.067 134.228 223.188 134.204 222.437 134.196L221.077 134.196ZM332.346 154.339C332.314 154.339 332.263 154.435 332.238 154.533C331.985 155.373 329.4 163.373 329.367 163.406C329.351 163.43 327.603 163.524 325.481 163.622L321.617 163.795L320.516 164.615C319.912 165.08 319.409 165.47 319.393 165.478C319.368 165.503 318.34 172.082 318.357 172.106C318.389 172.131 324.377 175.56 324.402 175.56C324.418 175.56 325.506 174.403 326.82 172.991C328.141 171.58 329.235 170.414 329.259 170.422C329.284 170.422 331.446 171.895 334.073 173.682L338.845 176.921L338.866 175.733C338.874 175.08 338.872 172.418 338.823 169.839L338.737 165.155L335.563 159.736C333.817 156.766 332.379 154.339 332.346 154.339ZM251.15 157.642L250.999 157.836C250.918 157.942 250.428 158.648 249.898 159.39L248.948 160.729L248.344 163.751C248.017 165.416 247.739 166.857 247.739 166.947C247.747 167.061 248.432 167.706 249.877 168.954C251.052 169.966 252.03 170.789 252.079 170.789C252.119 170.789 252.857 169.953 253.698 168.933L255.231 167.054L255.576 165.371C255.764 164.448 255.959 163.481 256.008 163.212L256.094 162.715L255.166 160.211C254.66 158.84 254.219 157.696 254.194 157.663C254.162 157.631 253.817 157.973 253.417 158.397L252.705 159.174L251.927 158.397L251.15 157.642ZM301.042 162.111C301.001 162.111 283.012 174.775 261.038 190.263C239.064 205.758 221.082 218.441 221.098 218.458C221.107 218.474 239.126 207.325 261.124 193.674L301.107 168.846V165.457C301.107 163.605 301.075 162.102 301.042 162.111ZM293.141 184.131L291.522 185.945L289.881 187.737L289.104 189.831C288.671 190.981 288.318 191.93 288.326 191.947C288.359 191.979 302.586 193.685 302.618 193.652C302.635 193.644 300.501 191.484 297.89 188.881L293.141 184.131ZM358.75 185.383C358.709 185.375 327.02 193.568 288.326 203.605C249.633 213.641 217.973 221.874 217.99 221.89C218.014 221.915 360.679 189.599 360.736 189.55C360.785 189.517 358.815 185.4 358.75 185.383ZM275.848 195.055C275.807 195.063 265.262 200.03 252.402 206.109C239.543 212.188 228.957 217.2 228.892 217.249C228.802 217.314 228.832 217.319 228.978 217.27C229.264 217.172 276.25 199.044 276.258 199.028C276.266 199.028 276.205 198.135 276.107 197.041C276.009 195.842 275.905 195.055 275.848 195.055ZM377.791 199.956C377.685 199.964 342.917 205.864 300.503 213.061C258.096 220.249 223.285 226.143 223.171 226.143C223.032 226.152 222.677 225.907 222.048 225.409L221.098 224.654L221.055 227.784L221.012 230.915L218.573 232.577C217.226 233.483 216.082 234.21 216.025 234.218C215.968 234.218 214.936 233.528 213.737 232.663C210.554 230.362 210.507 230.37 213.542 232.728C214.685 233.617 215.669 234.358 215.701 234.39C215.783 234.464 211.865 237.108 211.75 237.067C211.693 237.051 202.065 228.847 199.682 226.791L199.143 226.316L194.674 230.18C192.218 232.31 190.173 234.067 190.14 234.067C190.099 234.067 187.57 233.406 184.527 232.598L179 231.13L180.554 231.174C181.411 231.198 182.705 231.214 183.447 231.238C184.728 231.271 181.077 230.998 176.712 230.72C175.904 230.663 171.525 230.366 166.997 230.073L158.75 229.533L158.728 229.295C158.679 229.018 158.712 229.029 157.994 229.274C157.48 229.445 157.405 229.436 155.814 229.339C154.916 229.29 153.986 229.233 153.741 229.209L153.288 229.144L152.899 228.432L152.51 227.741L149.725 227.59C148.191 227.508 146.737 227.46 146.509 227.46H146.098L145.731 228.043L145.386 228.648L144.976 228.605C144.747 228.596 136.207 228.051 125.999 227.374C115.791 226.705 107.302 226.157 107.13 226.165L106.828 226.187L107.778 227.201C108.602 228.099 108.756 228.235 109.009 228.259C109.172 228.275 117.247 228.601 126.949 228.993C136.651 229.385 144.628 229.724 144.652 229.749C144.676 229.773 144.286 230.457 143.788 231.282C143.299 232.098 142.906 232.817 142.946 232.858C142.979 232.89 144.163 233.732 145.559 234.736L148.085 236.571L150.87 237.024C152.395 237.285 153.705 237.48 153.763 237.456C153.82 237.44 154.239 236.798 154.712 236.031L155.576 234.628H157.346H159.117V234.326C159.117 234.154 159.055 233.184 158.965 232.188C158.876 231.185 158.811 230.356 158.836 230.332C158.885 230.283 176.457 230.957 176.906 231.022C177.118 231.055 177.165 231.08 177.165 231.26C177.165 231.562 177.594 233.459 177.921 234.585C178.198 235.531 178.2 235.537 178.029 235.578C177.939 235.594 156.316 238.072 129.993 241.083C103.67 244.102 82.1386 246.588 82.1304 246.588C82.1059 246.604 81.9332 248.701 81.9577 248.725C81.974 248.734 103.588 245.815 129.993 242.249C156.398 238.683 178.063 235.772 178.136 235.772C178.226 235.772 178.338 235.947 178.46 236.29C178.566 236.576 178.807 237.158 178.978 237.607C179.15 238.048 179.275 238.419 179.259 238.427C179.243 238.436 163.082 242.015 143.335 246.372C123.588 250.73 107.371 254.341 107.282 254.382C107.143 254.439 107.059 254.649 106.871 255.612C106.741 256.249 106.674 256.797 106.699 256.821C106.739 256.854 179.084 239.033 179.41 238.902C179.459 238.886 179.617 239.113 179.756 239.399C179.935 239.758 179.972 239.936 179.907 239.96C179.85 239.977 174.399 241.45 167.774 243.22L155.706 246.415L155.554 247.646C155.465 248.323 155.395 248.89 155.403 248.898C155.411 248.906 161.041 247.065 167.903 244.796C180.42 240.667 180.503 240.64 180.511 240.975C180.511 241.024 171.72 245.809 160.973 251.618L141.414 262.175L141.478 262.953C141.511 263.377 141.532 263.861 141.565 264.032L141.629 264.334L161.038 252.914C171.719 246.631 180.524 241.439 180.598 241.407C180.704 241.342 180.858 241.54 181.396 242.421C182.008 243.433 182.836 244.612 183.685 245.681C184.011 246.106 184.031 246.166 183.901 246.264C183.827 246.313 173.539 254.528 161.038 264.507L138.326 282.663L139.924 284.239C140.813 285.104 141.607 285.839 141.673 285.88C141.771 285.937 144.808 283.167 155.252 273.596C162.661 266.799 168.729 261.26 168.745 261.269C168.762 261.285 168.647 261.531 168.508 261.808C168.369 262.078 168.27 262.329 168.27 262.37C168.27 262.427 170.511 264.962 171.034 265.5C171.172 265.639 171.245 265.619 172.804 264.917L174.423 264.183L175.244 265.004L176.064 265.802L177.683 264.831L179.324 263.838L179.95 261.744C180.301 260.585 180.568 259.585 180.576 259.52C180.576 259.446 179.959 259.009 179.086 258.462L177.618 257.534L175.244 257.491L172.89 257.447L178.698 252.115C181.888 249.194 184.51 246.804 184.527 246.804C184.535 246.804 185.19 247.432 185.973 248.207C186.757 248.982 187.77 249.921 188.218 250.28C193.661 254.637 199.846 256.75 206.504 256.562C211.735 256.415 216.387 254.939 220.818 252.05C222.646 250.859 223.795 249.926 225.459 248.294L226.496 247.301L242.018 259.801C250.57 266.687 257.567 272.309 257.584 272.301C257.592 272.284 257.186 271.317 256.655 270.142L255.706 268.004L241.284 257.426L226.863 246.869L227.143 246.523C227.298 246.344 227.716 245.82 228.05 245.379C228.393 244.947 228.708 244.594 228.741 244.602C228.782 244.618 237.485 251.41 248.085 259.693C258.684 267.975 267.486 274.847 267.666 274.978L267.99 275.215L268.918 274.287C269.432 273.773 269.854 273.326 269.846 273.294C269.83 273.269 260.75 266.677 249.661 258.656C238.58 250.635 229.44 244.028 229.367 243.954C229.236 243.832 229.261 243.768 229.734 243.026C230.052 242.528 230.273 242.246 230.339 242.27C230.396 242.295 238.634 247.317 248.646 253.453C258.65 259.581 266.864 264.566 266.889 264.55C266.905 264.526 266.472 263.595 265.917 262.478L264.902 260.448L247.761 251.035L230.619 241.623L231.202 240.478C231.528 239.85 231.932 239.051 232.087 238.708L232.368 238.082L242.99 240.824C248.832 242.333 253.622 243.598 253.655 243.63C253.72 243.696 252.905 244.839 252.791 244.839C252.75 244.839 251.307 244.567 249.617 244.257C247.92 243.938 246.488 243.695 246.422 243.695C246.333 243.695 245.974 244.267 245.386 245.336L244.479 246.998L246.617 248.574C247.792 249.447 249.275 250.541 249.92 251.014L251.086 251.877L259.764 253.367C264.53 254.183 268.448 254.83 268.465 254.814C268.489 254.789 268.642 252.58 268.724 251.143L268.745 250.647L267.32 249.006L265.895 247.387L264.125 246.631C263.146 246.215 262.368 245.862 262.376 245.854C262.385 245.846 267.931 247.26 274.704 249.006C281.476 250.752 287.074 252.18 287.139 252.18C287.196 252.18 287.225 252.156 287.225 252.115C287.225 252.082 287.471 250.414 287.765 248.423C288.059 246.432 288.291 244.813 288.283 244.796C288.267 244.788 275.797 243.018 260.563 240.889C245.337 238.759 232.859 236.997 232.843 236.981C232.827 236.965 232.99 236.398 233.21 235.729C233.438 235.06 233.62 234.464 233.62 234.39C233.62 234.301 233.025 234.06 231.483 233.505L229.345 232.75L228.914 231.994C228.677 231.594 228.501 231.241 228.525 231.217C228.541 231.192 240.522 231.754 255.144 232.447L281.72 233.7L281.936 233.915L282.152 234.153L286.966 234.477L291.759 234.801L292.04 234.498L292.32 234.196L326.301 235.815C344.995 236.697 360.296 237.399 360.304 237.391C360.32 237.375 359.676 236.886 358.901 236.29L357.497 235.189L325.481 234.196C307.872 233.633 293.422 233.168 293.357 233.16C293.291 233.144 294.255 231.982 295.667 230.375C297.005 228.857 298.079 227.598 298.063 227.59C298.055 227.574 294.206 225.863 289.514 223.79C284.822 221.718 280.976 219.993 280.943 219.969C280.91 219.953 279.846 220.928 278.59 222.128L276.301 224.308L273.063 225.388C271.292 225.983 269.819 226.486 269.803 226.51C269.779 226.527 270.099 227.847 270.516 229.447C270.932 231.046 271.231 232.393 271.206 232.426C271.174 232.45 261.559 232.153 249.833 231.778C238.116 231.411 228.493 231.122 228.46 231.13C228.428 231.13 228.241 230.834 228.029 230.483C227.661 229.879 227.576 229.789 225.373 228.043L223.085 226.251L223.516 226.187C223.753 226.154 258.593 221.425 300.934 215.673L377.921 205.224L377.964 202.59V199.956L377.791 199.956ZM160.606 212.65C160.603 212.668 160.616 212.698 160.628 212.737C160.66 212.826 160.805 213.225 160.952 213.6L161.232 214.269L173.991 220.422C181.001 223.8 186.756 226.54 186.772 226.532C186.78 226.516 181.089 223.471 174.121 219.775C167.161 216.078 161.261 212.954 161.016 212.823C160.717 212.652 160.613 212.598 160.606 212.65ZM149.402 220.12C149.377 220.12 148.832 220.585 148.171 221.156C147.51 221.728 146.994 222.211 147.027 222.236C147.108 222.301 185.061 228.222 185.11 228.173C185.142 228.148 149.54 220.112 149.402 220.12ZM185.369 228.194C185.279 228.186 185.228 228.213 185.261 228.238C185.285 228.262 185.355 228.262 185.412 228.238C185.477 228.213 185.458 228.194 185.369 228.194ZM153.806 230.051L154.367 230.094C154.669 230.127 155.035 230.151 155.166 230.159C155.37 230.159 155.344 230.198 154.928 230.353C154.08 230.68 154.12 230.68 153.957 230.353L153.806 230.051ZM279.281 231.13C279.33 231.13 279.72 231.494 280.144 231.951L280.9 232.793L279.518 232.728C278.751 232.695 277.249 232.653 276.172 232.62C275.095 232.596 274.272 232.537 274.337 232.512C274.549 232.439 279.199 231.139 279.281 231.13ZM185.11 231.303C185.09 231.311 185.093 231.334 185.11 231.346C185.134 231.371 185.204 231.371 185.261 231.346C185.326 231.322 185.286 231.303 185.196 231.303C185.151 231.299 185.129 231.295 185.11 231.303ZM122.912 233.764C122.879 233.756 121.735 234.593 120.364 235.621L117.882 237.456L117.86 238.449C117.836 239.42 117.832 239.453 118.011 239.485C118.313 239.551 131.628 240.762 131.742 240.738C131.823 240.713 123.075 233.805 122.912 233.764ZM139.471 249.675C139.471 249.749 144.462 254.554 144.544 254.554C144.593 254.554 145.424 254.226 146.379 253.842L148.106 253.151V251.64V250.129H147.89C147.605 250.129 140.612 249.746 139.967 249.697C139.682 249.672 139.471 249.659 139.471 249.675ZM121.142 262.37C121.117 262.37 121.072 262.429 121.055 262.478C121.031 262.535 120.643 263.842 120.17 265.392L119.307 268.22L119.566 268.587C120.977 270.554 124.482 275.328 124.531 275.345C124.564 275.353 124.727 274.962 124.898 274.481C125.069 273.991 125.428 272.987 125.697 272.236L126.172 270.876L126.474 270.833C126.645 270.808 127.343 270.757 128.029 270.725L129.259 270.681L130.231 269.624L131.202 268.587L131.72 267.011C131.998 266.155 132.19 265.452 132.174 265.435C132.125 265.386 127.579 263.687 127.489 263.687C127.44 263.687 127.109 264.063 126.733 264.529C126.358 265.002 125.991 265.365 125.934 265.349C125.885 265.333 124.798 264.667 123.516 263.859C122.235 263.043 121.166 262.37 121.142 262.37Z" fill="black"/>
</svg>
